<svg width="92" height="92" viewBox="0 0 92 92" fill="none" xmlns="http://www.w3.org/2000/svg">
<rect x="0.000244141" y="0.000671387" width="92" height="92" rx="46" fill="white"/>
<rect x="14.0002" y="14.0007" width="64" height="64" rx="32" fill="#4F587A"/>
<path d="M51.0002 53.0007C50.7002 53.0007 50.5002 52.9007 50.3002 52.7007C49.9002 52.3007 49.9002 51.7007 50.3002 51.3007L55.6002 46.0007L50.3002 40.7007C49.9002 40.3007 49.9002 39.7007 50.3002 39.3007C50.7002 38.9007 51.3002 38.9007 51.7002 39.3007L57.7002 45.3007C58.1002 45.7007 58.1002 46.3007 57.7002 46.7007L51.7002 52.7007C51.5002 52.9007 51.3002 53.0007 51.0002 53.0007Z" fill="white"/>
<path d="M57.0002 47.0007H35.0002C34.4002 47.0007 34.0002 46.6007 34.0002 46.0007C34.0002 45.4007 34.4002 45.0007 35.0002 45.0007H57.0002C57.6002 45.0007 58.0002 45.4007 58.0002 46.0007C58.0002 46.6007 57.6002 47.0007 57.0002 47.0007Z" fill="white"/>
</svg>
