<svg width="131" height="24" viewBox="0 0 131 24" fill="none" xmlns="http://www.w3.org/2000/svg">
<path d="M0.517045 18V0.545454H4.20739V14.9574H11.6903V18H0.517045ZM19.9808 18.2557C18.657 18.2557 17.5121 17.9744 16.5462 17.4119C15.5859 16.8437 14.8445 16.054 14.3217 15.0426C13.799 14.0256 13.5376 12.8466 13.5376 11.5057C13.5376 10.1534 13.799 8.97159 14.3217 7.96023C14.8445 6.94318 15.5859 6.15341 16.5462 5.59091C17.5121 5.02273 18.657 4.73864 19.9808 4.73864C21.3047 4.73864 22.4467 5.02273 23.407 5.59091C24.3729 6.15341 25.1172 6.94318 25.6399 7.96023C26.1626 8.97159 26.424 10.1534 26.424 11.5057C26.424 12.8466 26.1626 14.0256 25.6399 15.0426C25.1172 16.054 24.3729 16.8437 23.407 17.4119C22.4467 17.9744 21.3047 18.2557 19.9808 18.2557ZM19.9979 15.4432C20.6001 15.4432 21.103 15.2727 21.5064 14.9318C21.9098 14.5852 22.2138 14.1136 22.4183 13.517C22.6286 12.9205 22.7337 12.2415 22.7337 11.4801C22.7337 10.7188 22.6286 10.0398 22.4183 9.44318C22.2138 8.84659 21.9098 8.375 21.5064 8.02841C21.103 7.68182 20.6001 7.50852 19.9979 7.50852C19.3899 7.50852 18.8786 7.68182 18.4638 8.02841C18.0547 8.375 17.745 8.84659 17.5348 9.44318C17.3303 10.0398 17.228 10.7188 17.228 11.4801C17.228 12.2415 17.3303 12.9205 17.5348 13.517C17.745 14.1136 18.0547 14.5852 18.4638 14.9318C18.8786 15.2727 19.3899 15.4432 19.9979 15.4432ZM34.6825 23.1818C33.5064 23.1818 32.4979 23.0199 31.657 22.696C30.8217 22.3778 30.157 21.9432 29.6626 21.392C29.1683 20.8409 28.8473 20.2216 28.6996 19.5341L32.0575 19.0824C32.1598 19.3438 32.3217 19.5881 32.5433 19.8153C32.7649 20.0426 33.0575 20.2244 33.4212 20.3608C33.7905 20.5028 34.2393 20.5739 34.7678 20.5739C35.5575 20.5739 36.2081 20.3807 36.7195 19.9943C37.2365 19.6136 37.495 18.9744 37.495 18.0767V15.6818H37.3416C37.1825 16.0455 36.9439 16.3892 36.6257 16.7131C36.3075 17.0369 35.8984 17.3011 35.3984 17.5057C34.8984 17.7102 34.3018 17.8125 33.6087 17.8125C32.6257 17.8125 31.7308 17.5852 30.924 17.1307C30.1229 16.6705 29.4837 15.9687 29.0064 15.0256C28.5348 14.0767 28.299 12.8778 28.299 11.429C28.299 9.94602 28.5405 8.70739 29.0234 7.71307C29.5064 6.71875 30.1484 5.97443 30.9496 5.48011C31.7564 4.9858 32.6399 4.73864 33.6001 4.73864C34.3331 4.73864 34.9467 4.86364 35.4411 5.11364C35.9354 5.35795 36.3331 5.66477 36.6342 6.03409C36.9411 6.39773 37.1768 6.75568 37.3416 7.10795H37.478V4.90909H41.0831V18.1278C41.0831 19.2415 40.8104 20.1733 40.2649 20.9233C39.7195 21.6733 38.9638 22.2358 37.9979 22.6108C37.0376 22.9915 35.9325 23.1818 34.6825 23.1818ZM34.7592 15.0852C35.3445 15.0852 35.8388 14.9403 36.2422 14.6506C36.6513 14.3551 36.9638 13.9347 37.1797 13.3892C37.4013 12.8381 37.5121 12.179 37.5121 11.4119C37.5121 10.6449 37.4041 9.98011 37.1882 9.41761C36.9723 8.84943 36.6598 8.40909 36.2507 8.09659C35.8416 7.78409 35.3445 7.62784 34.7592 7.62784C34.1626 7.62784 33.6598 7.78977 33.2507 8.11364C32.8416 8.43182 32.532 8.875 32.3217 9.44318C32.1115 10.0114 32.0064 10.6676 32.0064 11.4119C32.0064 12.1676 32.1115 12.821 32.3217 13.3722C32.5376 13.9176 32.8473 14.3409 33.2507 14.642C33.6598 14.9375 34.1626 15.0852 34.7592 15.0852ZM49.8871 18.2557C48.5632 18.2557 47.4183 17.9744 46.4524 17.4119C45.4922 16.8437 44.7507 16.054 44.228 15.0426C43.7053 14.0256 43.4439 12.8466 43.4439 11.5057C43.4439 10.1534 43.7053 8.97159 44.228 7.96023C44.7507 6.94318 45.4922 6.15341 46.4524 5.59091C47.4183 5.02273 48.5632 4.73864 49.8871 4.73864C51.2109 4.73864 52.353 5.02273 53.3132 5.59091C54.2791 6.15341 55.0234 6.94318 55.5462 7.96023C56.0689 8.97159 56.3303 10.1534 56.3303 11.5057C56.3303 12.8466 56.0689 14.0256 55.5462 15.0426C55.0234 16.054 54.2791 16.8437 53.3132 17.4119C52.353 17.9744 51.2109 18.2557 49.8871 18.2557ZM49.9041 15.4432C50.5064 15.4432 51.0092 15.2727 51.4126 14.9318C51.8161 14.5852 52.12 14.1136 52.3246 13.517C52.5348 12.9205 52.6399 12.2415 52.6399 11.4801C52.6399 10.7188 52.5348 10.0398 52.3246 9.44318C52.12 8.84659 51.8161 8.375 51.4126 8.02841C51.0092 7.68182 50.5064 7.50852 49.9041 7.50852C49.2962 7.50852 48.7848 7.68182 48.37 8.02841C47.9609 8.375 47.6513 8.84659 47.4411 9.44318C47.2365 10.0398 47.1342 10.7188 47.1342 11.4801C47.1342 12.2415 47.2365 12.9205 47.4411 13.517C47.6513 14.1136 47.9609 14.5852 48.37 14.9318C48.7848 15.2727 49.2962 15.4432 49.9041 15.4432ZM65.6541 4.90909V7.63636H57.7706V4.90909H65.6541ZM59.5604 1.77273H63.1911V13.9773C63.1911 14.3125 63.2422 14.5739 63.3445 14.7614C63.4467 14.9432 63.5888 15.071 63.7706 15.1449C63.9581 15.2187 64.174 15.2557 64.4183 15.2557C64.5888 15.2557 64.7592 15.2415 64.9297 15.2131C65.1001 15.179 65.2308 15.1534 65.3217 15.1364L65.8928 17.8381C65.7109 17.8949 65.4553 17.9602 65.1257 18.0341C64.7962 18.1136 64.3956 18.1619 63.924 18.179C63.049 18.2131 62.282 18.0966 61.6229 17.8295C60.9695 17.5625 60.4609 17.1477 60.0973 16.5852C59.7337 16.0227 59.5547 15.3125 59.5604 14.4545V1.77273ZM70.2607 22.9091C69.8004 22.9091 69.3686 22.8722 68.9652 22.7983C68.5675 22.7301 68.2379 22.642 67.9766 22.5341L68.7947 19.8239C69.2209 19.9545 69.6044 20.0256 69.9453 20.0369C70.2919 20.0483 70.5902 19.9688 70.8402 19.7983C71.0959 19.6278 71.3033 19.3381 71.4624 18.929L71.6754 18.375L66.9794 4.90909H70.7976L73.5078 14.5227H73.6442L76.38 4.90909H80.2237L75.1357 19.4148C74.8913 20.1193 74.5589 20.733 74.1385 21.2557C73.7237 21.7841 73.1982 22.1903 72.5618 22.4744C71.9254 22.7642 71.1584 22.9091 70.2607 22.9091ZM82.0817 22.9091V4.90909H85.6612V7.10795H85.8232C85.9822 6.75568 86.2124 6.39773 86.5135 6.03409C86.8203 5.66477 87.218 5.35795 87.7067 5.11364C88.201 4.86364 88.8146 4.73864 89.5476 4.73864C90.5021 4.73864 91.3828 4.98864 92.1896 5.48864C92.9964 5.98295 93.6413 6.73011 94.1243 7.73011C94.6072 8.72443 94.8487 9.97159 94.8487 11.4716C94.8487 12.9318 94.6129 14.1648 94.1413 15.1705C93.6754 16.1705 93.0391 16.929 92.2322 17.446C91.4311 17.9574 90.5334 18.2131 89.5391 18.2131C88.8345 18.2131 88.2351 18.0966 87.7408 17.8636C87.2521 17.6307 86.8516 17.3381 86.5391 16.9858C86.2266 16.6278 85.9879 16.267 85.8232 15.9034H85.7124V22.9091H82.0817ZM85.6357 11.4545C85.6357 12.233 85.7436 12.9119 85.9595 13.4915C86.1754 14.071 86.4879 14.5227 86.897 14.8466C87.3061 15.1648 87.8033 15.3239 88.3885 15.3239C88.9794 15.3239 89.4794 15.1619 89.8885 14.8381C90.2976 14.5085 90.6072 14.054 90.8175 13.4744C91.0334 12.8892 91.1413 12.2159 91.1413 11.4545C91.1413 10.6989 91.0362 10.0341 90.826 9.46023C90.6158 8.88636 90.3061 8.4375 89.897 8.11364C89.4879 7.78977 88.9851 7.62784 88.3885 7.62784C87.7976 7.62784 87.2976 7.78409 86.8885 8.09659C86.4851 8.40909 86.1754 8.85227 85.9595 9.42614C85.7436 10 85.6357 10.6761 85.6357 11.4545ZM103.235 18.2557C101.888 18.2557 100.729 17.983 99.7578 17.4375C98.7919 16.8864 98.0476 16.108 97.5249 15.1023C97.0021 14.0909 96.7408 12.8949 96.7408 11.5142C96.7408 10.1676 97.0021 8.9858 97.5249 7.96875C98.0476 6.9517 98.7834 6.15909 99.7322 5.59091C100.687 5.02273 101.806 4.73864 103.09 4.73864C103.954 4.73864 104.758 4.87784 105.502 5.15625C106.252 5.42898 106.906 5.84091 107.462 6.39205C108.025 6.94318 108.462 7.63636 108.775 8.47159C109.087 9.30114 109.244 10.2727 109.244 11.3864V12.3835H98.1896V10.1335H105.826C105.826 9.6108 105.712 9.14773 105.485 8.74432C105.258 8.34091 104.942 8.02557 104.539 7.7983C104.141 7.56534 103.678 7.44886 103.15 7.44886C102.599 7.44886 102.11 7.5767 101.684 7.83239C101.263 8.08239 100.934 8.42045 100.695 8.84659C100.457 9.26705 100.335 9.7358 100.329 10.2528V12.392C100.329 13.0398 100.448 13.5994 100.687 14.071C100.931 14.5426 101.275 14.9062 101.718 15.1619C102.161 15.4176 102.687 15.5455 103.295 15.5455C103.698 15.5455 104.067 15.4886 104.403 15.375C104.738 15.2614 105.025 15.0909 105.263 14.8636C105.502 14.6364 105.684 14.358 105.809 14.0284L109.167 14.25C108.996 15.0568 108.647 15.7614 108.119 16.3636C107.596 16.9602 106.92 17.4261 106.09 17.7614C105.266 18.0909 104.315 18.2557 103.235 18.2557ZM111.106 5.09233L111.417 3.27273H118.904L118.593 5.09233H115.96L114.817 12H112.602L113.744 5.09233H111.106ZM120.217 3.27273H123.008L124.269 8.43324H124.371L127.342 3.27273H130.133L128.684 12H126.489L127.35 6.8054H127.282L124.418 11.9403H123.063L121.908 6.77557H121.836L120.962 12H118.768L120.217 3.27273Z" fill="#98B5FF"/>
</svg>
