<svg width="92" height="92" viewBox="0 0 92 92" fill="none" xmlns="http://www.w3.org/2000/svg">
<rect width="92" height="92" rx="46" fill="white"/>
<rect x="14" y="14" width="64" height="64" rx="32" fill="#4F587A"/>
<path d="M32.2742 39.9652H58.7258C59.0766 39.9652 59.413 39.8259 59.661 39.5779C59.9091 39.3298 60.0484 38.9934 60.0484 38.6426C60.0484 38.2919 59.9091 37.9555 59.661 37.7074C59.413 37.4594 59.0766 37.3201 58.7258 37.3201H32.2742C31.9235 37.3201 31.5871 37.4594 31.339 37.7074C31.091 37.9555 30.9517 38.2919 30.9517 38.6426C30.9517 38.9934 31.091 39.3298 31.339 39.5779C31.5871 39.8259 31.9235 39.9652 32.2742 39.9652Z" fill="white"/>
<path d="M60.0484 47.16C60.0484 46.8092 59.9091 46.4728 59.661 46.2248C59.413 45.9767 59.0766 45.8374 58.7258 45.8374H32.2742C31.9235 45.8374 31.5871 45.9767 31.339 46.2248C31.091 46.4728 30.9517 46.8092 30.9517 47.16C30.9517 47.5108 31.091 47.8472 31.339 48.0952C31.5871 48.3432 31.9235 48.4826 32.2742 48.4826H58.7258C59.0766 48.4826 59.413 48.3432 59.661 48.0952C59.9091 47.8472 60.0484 47.5108 60.0484 47.16Z" fill="white"/>
<path d="M58.7258 54.355H41.0914C40.7406 54.355 40.4042 54.4943 40.1562 54.7424C39.9081 54.9904 39.7688 55.3268 39.7688 55.6776C39.7688 56.0283 39.9081 56.3647 40.1562 56.6128C40.4042 56.8608 40.7406 57.0001 41.0914 57.0001H58.7258C59.0765 57.0001 59.4129 56.8608 59.661 56.6128C59.909 56.3647 60.0484 56.0283 60.0484 55.6776C60.0484 55.3268 59.909 54.9904 59.661 54.7424C59.4129 54.4943 59.0765 54.355 58.7258 54.355Z" fill="white"/>
</svg>
