<svg width="124" height="11" viewBox="0 0 124 11" fill="none" xmlns="http://www.w3.org/2000/svg">
<path fill-rule="evenodd" clip-rule="evenodd" d="M120.586 6.31822L1 6.31822C0.448 6.31822 -2.0834e-07 5.87022 -2.32468e-07 5.31822C-2.56597e-07 4.76622 0.448 4.31822 1 4.31822L120.586 4.31822L117.975 1.70722C117.584 1.31722 117.584 0.68322 117.975 0.293219C118.365 -0.0977806 118.999 -0.0977807 119.389 0.293219L123.696 4.59922C123.699 4.60322 123.703 4.60722 123.707 4.61122C123.902 4.80622 124 5.06222 124 5.31822C124 5.57422 123.902 5.83022 123.707 6.02522C123.703 6.02922 123.699 6.03322 123.696 6.03722L119.389 10.3432C118.999 10.7342 118.365 10.7342 117.975 10.3432C117.584 9.95322 117.584 9.31922 117.975 8.92922L120.586 6.31822Z" fill="#98B5FF"/>
</svg>
